<?xml version="1.0" encoding="UTF-8" standalone="no"?>
<!-- Created with Inkscape (http://www.inkscape.org/) -->

<svg
   width="39.250881mm"
   height="33.787182mm"
   viewBox="0 0 39.250881 33.787182"
   version="1.1"
   id="svg1"
   xml:space="preserve"
   inkscape:version="1.3.2 (091e20e, 2023-11-25, custom)"
   sodipodi:docname="arena.svg"
   xmlns:inkscape="http://www.inkscape.org/namespaces/inkscape"
   xmlns:sodipodi="http://sodipodi.sourceforge.net/DTD/sodipodi-0.dtd"
   xmlns="http://www.w3.org/2000/svg"
   xmlns:svg="http://www.w3.org/2000/svg"><sodipodi:namedview
     id="namedview1"
     pagecolor="#ffffff"
     bordercolor="#000000"
     borderopacity="0.25"
     inkscape:showpageshadow="2"
     inkscape:pageopacity="0.0"
     inkscape:pagecheckerboard="0"
     inkscape:deskcolor="#d1d1d1"
     inkscape:document-units="mm"
     inkscape:zoom="2.0485264"
     inkscape:cx="373.43916"
     inkscape:cy="633.38211"
     inkscape:window-width="1920"
     inkscape:window-height="1009"
     inkscape:window-x="-8"
     inkscape:window-y="-8"
     inkscape:window-maximized="1"
     inkscape:current-layer="layer1" /><defs
     id="defs1" /><g
     inkscape:label="Слой 1"
     inkscape:groupmode="layer"
     id="layer1"
     transform="translate(-89.127352,-150.31736)"><path
       id="rect18"
       style="opacity:1;fill:#cccccc;stroke:#666666;stroke-width:0.181"
       d="m 108.51121,150.7107 c -8.842088,0.1414 -17.477314,2.85728 -18.552877,7.11998 l -0.710034,17.56585 38.940771,-0.38757 -0.83922,-17.95291 c -3.07362,-4.59024 -11.03681,-6.47012 -18.83864,-6.34535 z m 0.41237,0.84439 c 2.43601,0.002 4.42399,6.20706 4.47363,13.96297 h -8.94364 c 0.0495,-7.75083 2.03562,-13.95426 4.47001,-13.96297 z m -9.77666,1.8619 c 1.81164,0.1452 3.20973,5.56869 3.24683,12.59717 l -7.140133,1.9606 c 0.03955,-7.53059 1.624681,-13.98409 3.568258,-14.52625 0.10858,-0.0292 0.216925,-0.0405 0.325045,-0.0315 z m 19.46134,0 c 0.10812,-0.009 0.21647,0.002 0.32505,0.0315 1.94359,0.54216 3.52922,6.99566 3.56877,14.52625 l -7.14065,-1.9606 c 0.0371,-7.02848 1.4352,-12.45197 3.24683,-12.59717 z" /><path
       d="m 108.83162,165.46319 c -10.52302,-8e-5 -19.05364,4.09393 -19.05339,9.14411 4.2e-4,5.04994 8.530843,9.14359 19.05339,9.14351 10.52233,-6e-5 19.0524,-4.09368 19.05282,-9.14351 2.5e-4,-5.05007 -8.53002,-9.14404 -19.05282,-9.14411 z"
       style="fill:#cccccc;fill-opacity:1;stroke:#4d4d4d;stroke-width:0.181;stroke-dasharray:none"
       id="path1" /><path
       d="m 108.83148,169.83057 c -5.49688,-4e-5 -9.953001,2.13854 -9.952871,4.77659 2.2e-4,2.63793 4.456231,4.77632 9.952871,4.77628 5.49653,-4e-5 9.95236,-2.13841 9.95258,-4.77628 1.3e-4,-2.63799 -4.45581,-4.77655 -9.95258,-4.77659 z"
       style="fill:#b3b3b3;fill-opacity:1;stroke:#4d4d4d;stroke-width:0.0945485;stroke-dasharray:none"
       id="path1-9" /><path
       id="rect3"
       style="opacity:1;vector-effect:none;fill:#b3b3b3;fill-opacity:1;stroke:#4d4d4d;stroke-width:0.162304"
       d="m 89.208508,159.33188 v 15.74115 c -2.12e-4,4.94317 8.750282,8.95043 19.544542,8.95036 10.79406,-6e-5 19.54424,-4.00729 19.54403,-8.95036 v -15.74115 c 2e-4,4.94307 -8.74998,8.95029 -19.54403,8.95035 -10.794252,7e-5 -19.544742,-4.00719 -19.544542,-8.95035 z m 1.606104,4.32428 c 0.07006,-0.0178 0.141148,0.0421 0.21239,0.1788 0.636905,1.23227 1.35019,7.65129 1.363175,15.17545 l -2.533646,-3.52768 c 0.01132,-6.52155 0.411601,-11.68818 0.958081,-11.82657 z m 36.019508,0 c 0.54648,0.13839 0.94676,5.43419 0.95808,11.95573 l -2.59823,3.65684 c 0.013,-7.52416 0.79085,-14.20151 1.42776,-15.43377 0.0712,-0.1367 0.14233,-0.19655 0.21239,-0.1788 z m -29.328444,3.7636 c 0.108064,-0.009 0.216525,0.002 0.325045,0.0326 1.942583,0.56605 3.527179,7.30413 3.566709,15.16652 l -7.136517,-2.04691 c 0.03707,-7.33813 1.434049,-13.00056 3.244763,-13.15216 z m 22.743314,0.11833 c 1.81071,0.1516 3.20769,5.42657 3.24476,12.7647 l -7.13651,2.43438 c 0.0396,-7.86221 1.62418,-14.59997 3.56671,-15.166 0.10852,-0.031 0.21698,-0.0421 0.32504,-0.0331 z m -11.56467,1.50689 c 2.46145,0.002 4.47051,6.27177 4.52066,14.1087 h -9.03718 c 0.0501,-7.83181 2.05668,-14.0999 4.51652,-14.1087 z"
       sodipodi:nodetypes="ccsccscscccsccccccccccccccccccccc" /><path
       id="path1-0"
       style="fill:#b3b3b3;stroke:#666666;stroke-width:0.129355"
       d="m 108.75305,150.38204 a 19.544281,8.9501839 0 0 0 -19.544542,8.94984 19.544281,8.9501839 0 0 0 19.544542,8.95035 19.544281,8.9501839 0 0 0 19.54403,-8.95035 19.544281,8.9501839 0 0 0 -19.54403,-8.94984 z m -0.0987,0.5395 a 17.480305,8.0050001 0 0 1 17.48007,8.00519 17.480305,8.0050001 0 0 1 -17.48007,8.00468 17.480305,8.0050001 0 0 1 -17.480587,-8.00468 17.480305,8.0050001 0 0 1 17.480587,-8.00519 z" /><path
       style="font-variation-settings:normal;opacity:1;vector-effect:none;fill:none;fill-opacity:1;stroke:none;stroke-width:0.149725;stroke-linecap:butt;stroke-linejoin:miter;stroke-miterlimit:4;stroke-dasharray:none;stroke-dashoffset:0;stroke-opacity:1;-inkscape-stroke:none"
       d="m 401.01997,630.17988 c -21.99893,-1.53119 -40.90746,-8.06659 -50.18716,-17.3463 -3.6407,-3.64069 -5.82872,-8.2046 -5.82872,-12.1579 0,-3.98575 2.12775,-8.40277 5.86691,-12.1792 13.09302,-13.22351 44.94311,-20.24075 75.89918,-16.72218 19.10169,2.17117 35.35333,8.3777 43.64294,16.66731 2.8425,2.8425 4.60392,5.76101 5.43269,9.00146 0.59983,2.34533 0.59732,4.12969 -0.009,6.50094 -3.47261,13.57777 -26.21133,24.21401 -56.14475,26.26218 -4.12478,0.28223 -14.44807,0.26769 -18.67195,-0.0263 z"
       id="path18"
       transform="scale(0.26458333)" /><path
       id="path19"
       style="font-variation-settings:normal;opacity:1;fill:#d7c0a3;fill-opacity:1;stroke:#666666;stroke-width:0.166972;stroke-linecap:butt;stroke-linejoin:miter;stroke-miterlimit:4;stroke-dasharray:none;stroke-dashoffset:0;stroke-opacity:1"
       d="m 337.68164,607.89063 0.004,27.93946 c 0.004,30.96749 -0.0776,29.34102 1.62695,32.90234 l 1.5625,2.66602 c 0.088,0.19109 0.20568,0.38002 0.36133,0.61523 0.35303,0.53346 1.5362,1.90268 2.63086,3.04297 10.40238,10.836 32.93942,18.43712 58.74024,19.81445 21.7289,1.15996 43.59784,-2.2625 59.79883,-9.35937 9.88772,-4.33134 17.66677,-10.81154 20.51171,-17.08594 1.52611,-3.36568 1.45508,-1.79084 1.45508,-32.48047 v -27.99609 l -1.08593,2.16015 c -7.26996,14.46816 -34.21024,25.0722 -66.50977,26.17969 -33.1547,1.13682 -63.51958,-7.70817 -75.27344,-21.92773 l -0.89258,-1.08204 c -0.2657,-0.37314 -1.59768,-2.60948 -2.07031,-3.5957 z m 141.60548,10.35938 c 0.85076,0 1.22125,0.70793 1.79296,3.42578 1.2082,5.74357 2.31046,23.87372 2.31446,38.03125 l 0.002,4.23437 -5.14062,7.23633 c -2.82688,3.97983 -5.24269,7.27356 -5.36915,7.31836 -0.27495,0.0973 -0.27634,0.79928 0.0137,-10.21094 0.26931,-10.22421 0.55922,-15.81886 1.23632,-23.91992 1.045,-12.50237 2.55504,-22.09734 3.94727,-25.07812 0.40887,-0.8754 0.59737,-1.03711 1.20313,-1.03711 z m -135.79298,0.0449 c 0.54508,0.063 0.7468,0.30627 1.19532,1.43945 1.85448,4.68535 3.62091,19.34857 4.45117,36.95703 0.38482,8.16119 0.60128,20.86937 0.35547,20.85547 -0.12122,-0.007 -2.14294,-2.706 -4.49219,-6 l -4.27148,-5.99023 -0.88477,-1.21484 -0.78906,-0.99805 0.29101,-11.25781 c 0.30562,-11.76342 0.58434,-17.40595 1.12305,-22.73047 0.19482,-1.92525 0.48739,-3.31144 0.35742,-3.6543 -8.2e-4,-0.002 -0.001,-0.0171 -0.002,-0.0195 0.0446,-0.22861 0.0956,-0.5555 0.16797,-1.05274 0.69218,-4.75292 1.36715,-6.4646 2.49804,-6.33398 z m 25.58985,14.10937 c 1.4825,0.11823 2.96993,1.07118 4.30078,2.8086 2.11926,2.76666 4.40522,8.48344 6.00195,15.00976 2.4264,9.91736 4.18164,25.45145 4.18164,37.00586 0,1.93163 -0.0829,3.50204 -0.18359,3.49024 -0.14928,-0.0174 -27.42014,-7.83039 -27.5625,-7.89649 -0.14974,-0.0696 0.45971,-13.45667 0.76758,-16.86328 1.60075,-17.71255 5.27316,-29.94326 9.86523,-32.85547 0.85167,-0.54011 1.73941,-0.77015 2.62891,-0.69922 z m 85.14648,0.50782 c 0.72632,3.5e-4 1.45207,0.15254 2.05274,0.45898 2.5499,1.30085 4.99943,5.6518 6.83203,12.13867 2.29211,8.11345 3.80482,20.44049 3.96289,32.27539 l 0.0547,4.00586 -3.40235,1.16211 c -1.87116,0.6386 -8.11211,2.7639 -13.87109,4.72266 l -10.47266,3.56055 0.1543,-6.41016 c 0.61791,-25.7393 6.1159,-48.13035 12.63672,-51.45703 0.59955,-0.30585 1.32642,-0.45738 2.05273,-0.45703 z m -44.04101,5.62109 c 6.74867,-0.71157 12.96425,10.49603 16.08008,29.3418 1.17856,7.1284 1.96284,15.92946 1.96484,22.07226 v 2.7461 h -17.49023 -17.49024 l 0.1582,-5.1875 c 0.77394,-25.49945 7.23028,-45.87943 15.41993,-48.66992 0.45387,-0.15465 0.90751,-0.2553 1.35742,-0.30274 z"
       transform="scale(0.26458333)" /><path
       style="font-variation-settings:normal;opacity:1;fill:#e5d6c3;fill-opacity:1;stroke:#666666;stroke-width:0.166972;stroke-linecap:butt;stroke-linejoin:miter;stroke-miterlimit:4;stroke-dasharray:none;stroke-dashoffset:0;stroke-opacity:1"
       d="m 394.17726,688.36066 c 0.21619,-4.74843 0.60912,-10.57485 0.75908,-11.25575 0.11186,-0.50789 0.22118,-0.55708 0.90869,-0.40893 8.78331,1.89275 21.34364,2.04172 29.24641,0.34688 0.68122,-0.14609 1.32547,-0.17177 1.43296,-0.0571 0.18923,0.20186 0.56528,5.2361 0.86791,11.61897 l 0.14755,3.112 h -16.7577 -16.7577 z"
       id="path20"
       transform="scale(0.26458333)" /><path
       style="font-variation-settings:normal;opacity:1;fill:#e5d6c3;fill-opacity:1;stroke:#666666;stroke-width:0.166972;stroke-linecap:butt;stroke-linejoin:miter;stroke-miterlimit:4;stroke-dasharray:none;stroke-dashoffset:0;stroke-opacity:1"
       d="m 440.28969,685.35002 c 0.16941,-4.74031 0.49722,-10.10979 0.7761,-12.71219 0.14569,-1.35959 0.17186,-1.39884 1.53006,-2.29523 2.22152,-1.46618 4.49758,-3.94522 5.51824,-6.01039 2.03643,-4.12044 1.12958,-8.68681 -2.41209,-12.1459 -0.61277,-0.59848 -1.11413,-1.30251 -1.11413,-1.56451 0,-0.69182 1.58136,-5.92285 2.46056,-8.13936 2.23599,-5.63705 4.84606,-8.85625 7.18051,-8.85625 0.90828,0 2.36975,0.81401 3.23904,1.80408 4.82749,5.49821 8.08081,20.66414 8.75216,40.79987 l 0.16318,4.89392 -12.78933,4.35955 c -7.03413,2.39775 -12.9433,4.41483 -13.13149,4.4824 -0.28964,0.10399 -0.31616,-0.60452 -0.17281,-4.61599 z"
       id="path21"
       transform="scale(0.26458333)" /><path
       style="font-variation-settings:normal;opacity:1;fill:#e5d6c3;fill-opacity:1;stroke:#666666;stroke-width:0.166972;stroke-linecap:butt;stroke-linejoin:miter;stroke-miterlimit:4;stroke-dasharray:none;stroke-dashoffset:0;stroke-opacity:1"
       d="m 473.63353,672.61763 c 5.4e-4,-4.36384 0.4247,-14.96954 0.86145,-21.53987 0.19632,-2.95334 0.35731,-5.69463 0.35775,-6.09175 l 8e-4,-0.72203 1.11857,1.08815 c 2.55033,2.48097 5.13036,6.49997 6.02591,9.3868 0.50106,1.61516 0.74904,8.04418 0.34461,8.93418 -0.31206,0.68674 -8.43153,12.17855 -8.60468,12.17855 -0.0576,0 -0.10463,-1.45531 -0.10441,-3.23403 z"
       id="path22"
       transform="scale(0.26458333)" /><path
       style="font-variation-settings:normal;opacity:1;fill:#e5d6c3;fill-opacity:1;stroke:#666666;stroke-width:0.166972;stroke-linecap:butt;stroke-linejoin:miter;stroke-miterlimit:4;stroke-dasharray:none;stroke-dashoffset:0;stroke-opacity:1"
       d="m 481.93943,651.93203 c -0.67442,-1.60717 -3.13785,-5.00247 -5.01048,-6.90584 l -1.87153,-1.90225 0.40037,-3.95562 c 0.82894,-8.18975 2.13907,-16.09113 3.0891,-18.63031 0.75844,-2.02711 0.98724,-1.84886 1.67183,1.30246 0.50766,2.33692 1.07763,7.2773 1.45826,12.63999 0.33173,4.67381 0.80441,16.40285 0.70329,17.45157 l -0.0824,0.85427 z"
       id="path23"
       transform="scale(0.26458333)" /><path
       style="font-variation-settings:normal;opacity:1;fill:#e5d6c3;fill-opacity:1;stroke:#666666;stroke-width:0.166972;stroke-linecap:butt;stroke-linejoin:miter;stroke-miterlimit:4;stroke-dasharray:none;stroke-dashoffset:0;stroke-opacity:1"
       d="m 387.37186,622.45963 c -0.67635,-17.56032 -3.24901,-31.39186 -7.12952,-38.33086 -3.30373,-5.90761 -7.51528,-6.26794 -11.12538,-0.95184 -3.80791,5.6074 -7.12351,18.21071 -8.48819,32.26546 -0.14338,1.47667 -0.31757,3.04126 -0.3871,3.47686 l -0.1264,0.79201 -1.27059,-0.7219 c -5.58514,-3.17326 -10.59138,-8.09281 -12.50928,-12.29268 -4.26307,-9.33537 1.66436,-19.05438 15.9473,-26.14825 10.17774,-5.05495 23.20586,-8.25993 38.24911,-9.40948 4.39942,-0.33618 15.85905,-0.33618 20.25846,0 29.43739,2.24949 51.66971,12.82421 55.1501,26.23194 1.47599,5.68601 -1.15789,12.01448 -7.11631,17.09848 -1.98211,1.69123 -5.85848,4.42641 -6.0228,4.24972 -0.053,-0.057 -0.22215,-1.42171 -0.37579,-3.03262 -0.81325,-8.52627 -2.714,-18.21764 -4.78989,-24.42225 -2.09016,-6.24725 -4.74106,-10.39878 -7.331,-11.48092 -7.5657,-3.16115 -13.59341,14.30893 -14.64977,42.45936 l -0.17275,4.60358 -0.99987,-0.14453 c -0.54993,-0.0795 -1.99892,-0.27196 -3.21998,-0.42773 l -2.22011,-0.28321 -0.15247,-5.27419 c -0.52152,-18.0406 -4.13927,-34.46322 -9.39445,-42.64563 -4.74444,-7.38718 -10.5782,-7.57091 -15.29519,-0.4817 -5.54145,8.32828 -9.03627,23.98262 -9.79931,43.89406 -0.0913,2.38282 -0.17702,4.33741 -0.19046,4.34355 -0.0789,0.036 -6.17452,0.9448 -6.39894,0.95399 -0.18488,0.008 -0.32623,-1.3824 -0.43942,-4.32122 z"
       id="path24"
       transform="scale(0.26458333)" /><path
       id="path25"
       style="font-variation-settings:normal;opacity:1;fill:#e5d6c3;fill-opacity:1;stroke:#666666;stroke-width:0.166972;stroke-linecap:butt;stroke-linejoin:miter;stroke-miterlimit:4;stroke-dasharray:none;stroke-dashoffset:0;stroke-opacity:1"
       d="m 411.02735,568.83985 c -5.0838,0 -10.16809,0.14437 -13.30274,0.43359 -24.59472,2.26931 -44.14127,9.36945 -53.95507,19.59571 -1.01458,1.05722 -2.14055,2.31631 -2.50196,2.79883 l -0.65625,0.87695 -1.27344,2.40625 c -1.23408,2.63965 -1.73914,4.71706 -1.74414,7.18945 -0.006,2.948 0.78148,5.81876 2.30469,8.40039 0.29045,0.49229 1.2292,1.97485 1.2461,1.93555 2.69624,3.88947 7.96945,8.15632 14.20703,11.49805 10.67607,5.71959 26.56254,9.87041 42.49609,11.10351 1.8794,0.14544 3.85561,0.30702 4.39258,0.35742 2.61739,0.24576 20.00948,-0.0856 23.49414,-0.44726 19.58045,-2.03188 34.91309,-6.69096 45.82422,-13.92578 8.46359,-5.61194 12.87599,-12.04326 12.90039,-18.80078 0.01,-2.6902 -0.34957,-4.27179 -1.57422,-6.91797 -1.30862,-2.82763 -2.67346,-4.644 -5.62305,-7.48242 -10.07635,-9.69658 -29.14439,-16.3931 -52.93164,-18.5879 -3.13463,-0.28922 -8.21893,-0.43359 -13.30273,-0.43359 z m -0.36719,1.44727 c 10.09076,0 12.2983,0.12753 19.52735,1.1289 30.20463,4.18393 49.93876,18.01437 46.50195,32.58789 -0.8293,3.51659 -2.77944,6.62731 -6.23633,9.94532 -8.89461,8.53726 -24.86263,14.34996 -45.75781,16.6582 -3.20881,0.35446 -20.12569,0.6762 -22.69922,0.43164 -0.53697,-0.051 -2.40328,-0.20974 -4.14844,-0.35352 -6.87384,-0.5663 -15.5449,-2.11182 -21.78906,-3.88281 -10.90998,-3.09433 -19.68829,-7.57337 -25.18945,-12.85351 -5.50633,-5.28511 -7.58734,-10.87243 -6.2168,-16.6875 2.8315,-12.01378 21.47801,-22.38212 46.48242,-25.84571 7.22904,-1.00137 9.43463,-1.1289 19.52539,-1.1289 z"
       transform="scale(0.26458333)" /><path
       style="font-variation-settings:normal;opacity:1;fill:#e5d6c3;fill-opacity:1;stroke:#666666;stroke-width:0.166972;stroke-linecap:butt;stroke-linejoin:miter;stroke-miterlimit:4;stroke-dasharray:none;stroke-dashoffset:0;stroke-opacity:1"
       d="m 344.57695,669.38692 -3.96626,-5.52259 v -4.69162 -4.69163 l 0.85387,-1.78173 c 0.46963,-0.97996 1.26593,-2.40361 1.76956,-3.16367 0.91882,-1.38665 3.87437,-4.68191 4.19925,-4.68191 0.39978,0 1.30471,20.00794 1.18473,26.19444 l -0.0749,3.8613 z"
       id="path26"
       transform="scale(0.26458333)" /><path
       style="font-variation-settings:normal;opacity:1;fill:#e5d6c3;fill-opacity:1;stroke:#666666;stroke-width:0.166972;stroke-linecap:butt;stroke-linejoin:miter;stroke-miterlimit:4;stroke-dasharray:none;stroke-dashoffset:0;stroke-opacity:1"
       d="m 340.68991,643.26727 c 0.15033,-11.30622 1.04444,-20.63116 2.25222,-23.48897 l 0.38831,-0.91882 0.36861,0.69439 c 1.13034,2.12935 2.53268,10.49257 3.50307,20.89142 l 0.26053,2.79181 -1.55661,1.60159 c -2.0402,2.09917 -3.08613,3.43326 -4.31989,5.51006 l -1.01307,1.70532 z"
       id="path27"
       transform="scale(0.26458333)" /><path
       style="font-variation-settings:normal;opacity:1;fill:#e5d6c3;fill-opacity:1;stroke:#666666;stroke-width:0.166972;stroke-linecap:butt;stroke-linejoin:miter;stroke-miterlimit:4;stroke-dasharray:none;stroke-dashoffset:0;stroke-opacity:1"
       d="m 369.65596,685.88659 c -6.77927,-1.96399 -12.46323,-3.65884 -12.63103,-3.76633 -0.77482,-0.49637 0.0975,-15.69296 1.42382,-24.8042 1.95629,-13.43897 5.58473,-22.68251 9.39769,-23.9409 3.54202,-1.16897 7.34963,4.56043 10.31889,15.52709 l 0.46834,1.72974 -0.84748,0.67622 c -1.06432,0.84924 -2.92232,3.34304 -3.52006,4.72462 -1.09969,2.54172 -1.01853,5.54522 0.22143,8.19496 0.88721,1.89591 3.34555,4.56529 5.66199,6.14804 1.44903,0.99008 1.69638,1.26733 1.81098,2.02986 0.20257,1.34789 0.58994,7.68795 0.77351,12.65991 0.15728,4.26025 0.14447,4.45306 -0.29385,4.42315 -0.25206,-0.0172 -6.00497,-1.63818 -12.78423,-3.60216 z"
       id="path28"
       transform="scale(0.26458333)" /><path
       style="font-variation-settings:normal;opacity:1;fill:#ddd9a9;fill-opacity:1;stroke:#666666;stroke-width:0.166972;stroke-linecap:butt;stroke-linejoin:miter;stroke-miterlimit:4;stroke-dasharray:none;stroke-dashoffset:0;stroke-opacity:1"
       d="m 407.24395,677.53802 c -4.47679,-0.21131 -11.06366,-1.1325 -11.9311,-1.66861 -0.25185,-0.15565 -0.21177,-0.93002 0.2044,-3.9499 1.04108,-7.55444 3.01797,-15.87877 4.89023,-20.59192 1.44823,-3.6457 3.76267,-7.84131 4.80082,-8.70289 0.50057,-0.41544 9.6409,-0.62806 10.62161,-0.24708 2.08798,0.81114 5.96066,9.35809 7.97874,17.60898 1.26257,5.162 2.98316,15.68071 2.62376,16.04012 -0.25491,0.25491 -3.33522,0.78386 -6.6248,1.1376 -4.38017,0.47102 -8.13529,0.58272 -12.56366,0.3737 z"
       id="path29"
       transform="scale(0.26458333)" /><path
       style="font-variation-settings:normal;opacity:1;fill:#e5d6c3;fill-opacity:1;stroke:#666666;stroke-width:0.166972;stroke-linecap:butt;stroke-linejoin:miter;stroke-miterlimit:4;stroke-dasharray:none;stroke-dashoffset:0;stroke-opacity:1"
       d="m 406.71683,641.11204 c 0.89713,-0.95495 2.66514,-1.69772 4.04109,-1.69772 1.35282,0 3.31736,0.82906 4.15129,1.7519 l 0.46497,0.51454 h -4.59582 -4.59581 z"
       id="path30"
       transform="scale(0.26458333)" /><path
       style="font-variation-settings:normal;opacity:1;fill:#e5d6c3;fill-opacity:1;stroke:#666666;stroke-width:0.166972;stroke-linecap:butt;stroke-linejoin:miter;stroke-miterlimit:4;stroke-dasharray:none;stroke-dashoffset:0;stroke-opacity:1"
       d="m 401.87424,630.30745 c -0.46985,-0.0521 -2.28213,-0.21354 -4.02729,-0.35882 -4.31634,-0.35932 -11.91297,-1.44191 -12.21127,-1.74021 -0.15627,-0.15627 6.3134,-1.1425 10.13661,-1.54523 12.1988,-1.28499 23.83791,-1.07516 36.24151,0.65336 4.75715,0.66294 5.04304,0.78153 2.78705,1.15608 -9.08403,1.50816 -12.38453,1.77711 -22.79738,1.8577 -5.10123,0.0395 -9.65938,0.0292 -10.12923,-0.0229 z"
       id="path31"
       transform="scale(0.26458333)" /><path
       style="font-variation-settings:normal;opacity:1;fill:#ddd9a9;fill-opacity:1;stroke:#666666;stroke-width:0.166972;stroke-linecap:butt;stroke-linejoin:miter;stroke-miterlimit:4;stroke-dasharray:none;stroke-dashoffset:0;stroke-opacity:1"
       d="m 380.1251,669.59034 c -2.36564,-1.73965 -4.02663,-3.6046 -5.04431,-5.66372 -0.84731,-1.71443 -0.90939,-1.99086 -0.90939,-4.0494 0,-1.98836 0.0778,-2.36827 0.77763,-3.79803 0.70405,-1.43834 3.26832,-4.63531 3.71795,-4.63531 0.18778,0 1.22139,4.9829 1.84798,8.90884 0.49431,3.09718 1.36061,10.19487 1.25697,10.29851 -0.0476,0.0476 -0.78866,-0.42981 -1.64683,-1.06089 z"
       id="path32"
       transform="scale(0.26458333)" /><path
       style="font-variation-settings:normal;opacity:1;fill:#ddd9a9;fill-opacity:1;stroke:#666666;stroke-width:0.166972;stroke-linecap:butt;stroke-linejoin:miter;stroke-miterlimit:4;stroke-dasharray:none;stroke-dashoffset:0;stroke-opacity:1"
       d="m 441.29117,669.8223 c 0.062,-0.37553 0.28331,-2.11063 0.4917,-3.85579 0.75291,-6.3051 2.23027,-14.03448 2.68251,-14.03448 0.41652,0 2.48148,2.61887 3.17548,4.02729 1.96021,3.97809 0.97738,7.9227 -2.91908,11.71573 -1.10322,1.07395 -2.35181,2.15004 -2.77464,2.39132 l -0.76878,0.4387 z"
       id="path33"
       transform="scale(0.26458333)" /><path
       style="font-variation-settings:normal;opacity:1;fill:#434a42;fill-opacity:1;stroke:none;stroke-width:0.333945;stroke-linecap:butt;stroke-linejoin:miter;stroke-miterlimit:4;stroke-dasharray:none;stroke-dashoffset:0;stroke-opacity:1"
       d="m 444.46583,690.37386 c 0,-0.26137 5.10733,-2.22686 11.34962,-4.36776 l 11.34962,-3.89255 0.15584,-3.37502 c 0.38392,-8.31469 -1.68336,-25.39297 -4.07051,-33.62756 -2.42979,-8.38167 -5.42018,-12.46109 -9.13449,-12.46109 -1.67857,0 -2.27439,0.29815 -3.79939,1.90126 -1.90794,2.00566 -3.31993,4.58567 -4.87401,8.90587 l -0.94146,2.61715 -0.0176,-6.44925 -0.0176,-6.44925 2.07466,-0.53273 c 9.20486,-2.36361 19.35181,-6.53046 25.53568,-10.48623 3.66866,-2.34682 8.74956,-7.21596 10.31732,-9.88733 0.66966,-1.14106 1.30653,-2.07466 1.41526,-2.07466 0.10873,0 0.16083,12.24661 0.11578,27.21469 -0.0742,24.6572 -0.11481,25.93021 -0.43196,13.54632 -0.4607,-17.98957 -1.51104,-29.32114 -2.97505,-32.09624 -0.68773,-1.30364 -2.1773,-1.04161 -2.77504,0.48815 -1.40307,3.59078 -2.56854,10.82378 -3.71657,23.06536 -0.85508,9.11782 -1.93198,34.29675 -1.53459,35.88009 0.22003,0.87665 -0.33533,1.40204 -3.51164,3.32221 -4.39803,2.65873 -9.83815,5.02762 -16.27198,7.08562 -5.54544,1.77384 -8.24187,2.32116 -8.24187,1.67295 z"
       id="path35"
       transform="scale(0.26458333)" /><path
       style="font-variation-settings:normal;opacity:1;fill:#434a42;fill-opacity:1;stroke:#666666;stroke-width:0.0834862;stroke-linecap:butt;stroke-linejoin:miter;stroke-miterlimit:4;stroke-dasharray:none;stroke-dashoffset:0;stroke-opacity:1"
       d="m 472.46546,679.40246 c 0.13881,-0.19494 0.25238,-0.43619 0.25238,-0.53611 0,-0.0999 0.0818,-0.21308 0.18187,-0.25147 0.22579,-0.0866 2.07802,-2.58102 5.85797,-7.88885 1.60131,-2.24857 3.34125,-4.69114 3.86655,-5.42794 l 0.95508,-1.33964 v -2.5351 c 0,-2.17206 0.0262,-2.5351 0.18306,-2.5351 0.10068,0 0.19499,-0.0137 0.20959,-0.0305 0.0146,-0.0168 0.0596,-3.57269 0.10009,-7.90202 l 0.0736,-7.87151 -0.0234,10.06821 c -0.0244,10.49437 -0.0706,11.58875 -0.55937,13.24012 -0.95128,3.21414 -3.84568,7.26096 -7.40117,10.34796 -1.38623,1.20358 -3.69756,3.01641 -3.84587,3.01641 -0.0565,0 0.0108,-0.1595 0.14965,-0.35445 z"
       id="path36"
       transform="scale(0.26458333)" /><path
       style="font-variation-settings:normal;opacity:1;fill:#5c655a;fill-opacity:1;stroke:#666666;stroke-width:0.236135;stroke-linecap:butt;stroke-linejoin:miter;stroke-miterlimit:4;stroke-dasharray:none;stroke-dashoffset:0;stroke-opacity:1"
       d="m 444.42055,629.5421 0.004,-2.18062 5.08783,-1.65981 c 13.34988,-4.35514 22.60778,-10.86835 26.23745,-18.45882 1.52954,-3.19863 1.90223,-7.33961 0.95591,-10.62128 -2.40906,-8.35421 -12.718,-16.29438 -27.3695,-21.08061 -3.88457,-1.26898 -4.91879,-1.73604 -4.91879,-2.22134 0,-0.56641 0.29046,-0.5376 3.71067,0.36796 8.76894,2.32173 17.37056,5.95067 23.04065,9.72063 1.51878,1.00981 4.28532,3.30668 6.14787,5.10414 2.94174,2.83896 3.59646,3.69118 4.98578,6.48985 1.46172,2.94447 1.61186,3.48328 1.74466,6.26095 0.1783,3.72939 -0.43247,6.11589 -2.43897,9.52977 -4.65817,7.92547 -17.44379,15.64169 -32.62785,19.69115 -1.84508,0.49207 -3.62651,0.97207 -3.95874,1.06666 -0.52995,0.1509 -0.60363,-0.0955 -0.60052,-2.00863 z"
       id="path37"
       transform="scale(0.26458333)" /><path
       style="font-variation-settings:normal;opacity:1;fill:#3e443d;fill-opacity:1;stroke:#666666;stroke-width:0.166972;stroke-linecap:butt;stroke-linejoin:miter;stroke-miterlimit:4;stroke-dasharray:none;stroke-dashoffset:0;stroke-opacity:1"
       d="m 462.89371,618.22922 c 0,-0.16003 -0.22666,-2.22547 -0.50369,-4.58987 -1.41808,-12.10324 -3.90194,-22.13459 -6.96206,-28.11708 -3.15145,-6.16104 -6.75389,-7.86969 -10.19882,-4.83735 l -1.12943,0.99417 v -3.19376 c 0,-1.80971 0.0985,-3.19375 0.22734,-3.19375 0.50955,0 7.95041,2.51566 10.15616,3.43367 10.99793,4.57722 18.22911,10.57458 20.76597,17.22278 0.85101,2.2302 1.05092,5.41716 0.48029,7.65658 -0.91445,3.58872 -2.7869,6.55431 -6.17141,9.77427 -2.25975,2.14987 -6.66435,5.35556 -6.66435,4.85034 z"
       id="path38"
       transform="scale(0.26458333)" /><path
       style="font-variation-settings:normal;opacity:1;fill:#50584f;fill-opacity:1;stroke:#666666;stroke-width:0.166972;stroke-linecap:butt;stroke-linejoin:miter;stroke-miterlimit:4;stroke-dasharray:none;stroke-dashoffset:0;stroke-opacity:1"
       d="m 481.85031,651.26571 c -0.31449,-0.88969 -2.77484,-4.19168 -4.73908,-6.36025 l -1.83237,-2.02297 0.40483,-3.8349 c 0.88344,-8.36877 2.30326,-16.67324 3.20149,-18.72538 l 0.42657,-0.97458 0.3365,1.09835 c 0.51071,1.66697 1.25563,7.16258 1.65421,12.2039 0.42059,5.31952 0.96543,17.37687 0.83271,18.42788 -0.0861,0.68169 -0.10574,0.69466 -0.28486,0.18795 z"
       id="path39"
       transform="scale(0.26458333)" /><path
       style="font-variation-settings:normal;opacity:1;fill:#50584f;fill-opacity:1;stroke:#666666;stroke-width:0.166972;stroke-linecap:butt;stroke-linejoin:miter;stroke-miterlimit:4;stroke-dasharray:none;stroke-dashoffset:0;stroke-opacity:1"
       d="m 473.87721,671.51584 c 0,-5.73819 1.00861,-26.28756 1.30479,-26.58374 0.21801,-0.21802 3.50941,3.87018 4.62115,5.73988 1.69527,2.85103 2.09328,4.08365 2.39845,7.4278 0.35947,3.93928 0.20938,5.05171 -0.91068,6.74962 -1.43538,2.1759 -7.19694,10.27003 -7.31041,10.27003 -0.0568,0 -0.1033,-1.62161 -0.1033,-3.60359 z"
       id="path40"
       transform="scale(0.26458333)" /><path
       style="font-variation-settings:normal;opacity:1;fill:#e5d6c3;fill-opacity:1;stroke:none;stroke-width:0.166972;stroke-linecap:butt;stroke-linejoin:miter;stroke-miterlimit:4;stroke-dasharray:none;stroke-dashoffset:0;stroke-opacity:1"
       d="m 444.09971,679.05707 v -9.45236 l 0.99927,-0.96483 c 1.25026,-1.20716 2.97525,-3.59697 3.48696,-4.83084 1.56948,-3.78444 0.70623,-7.91624 -2.37552,-11.37002 -0.75816,-0.84969 -1.37847,-1.70685 -1.37847,-1.90481 0,-0.67771 1.51158,-5.55686 2.47818,-7.99918 1.69349,-4.27898 3.78051,-7.36996 5.6176,-8.31996 2.9473,-1.52411 6.40852,2.65004 8.82956,10.64823 2.37279,7.83878 4.03279,20.40168 4.13982,31.33027 l 0.0476,4.85736 -3.05097,1.03483 c -1.67804,0.56916 -6.59315,2.24732 -10.92249,3.72925 l -7.87151,2.69443 z"
       id="path41"
       transform="scale(0.26458333)" /><path
       style="font-variation-settings:normal;opacity:1;fill:#ddd9a9;fill-opacity:1;stroke:none;stroke-width:0.166972;stroke-linecap:butt;stroke-linejoin:miter;stroke-miterlimit:4;stroke-dasharray:none;stroke-dashoffset:0;stroke-opacity:1"
       d="m 444.15049,660.31156 c 0.0392,-4.184 0.16459,-7.69865 0.27865,-7.81034 0.324,-0.31725 2.01907,1.75463 2.93755,3.59057 0.45739,0.91425 0.90687,2.20947 0.99885,2.87826 0.33568,2.4407 -1.00705,5.73043 -3.22898,7.91109 l -1.05733,1.03769 z"
       id="path42"
       transform="scale(0.26458333)" /><path
       style="font-variation-settings:normal;opacity:1;fill:#eee4d7;fill-opacity:1;stroke:#666666;stroke-width:0.333945;stroke-linecap:butt;stroke-linejoin:miter;stroke-miterlimit:4;stroke-dasharray:none;stroke-dashoffset:0;stroke-opacity:1"
       d="m 397.3588,634.75174 c -29.95848,-2.68183 -54.59461,-14.41952 -58.6378,-27.93752 -1.88862,-6.31441 0.14164,-12.4641 6.00031,-18.17503 9.25007,-9.01682 24.60566,-15.0943 46.29146,-18.32138 9.01918,-1.34214 32.22794,-1.2271 41.24916,0.20448 8.56832,1.3597 11.71574,2.06169 11.71574,2.61303 0,0.6018 -0.13047,0.58898 -5.14849,-0.50591 -8.61492,-1.87972 -15.36206,-2.46358 -28.43722,-2.46083 -10.06652,0.002 -13.88258,0.19902 -19.31521,0.99658 -18.36836,2.69665 -32.50992,8.38443 -40.60207,16.33031 -4.77663,4.69029 -6.32486,7.9166 -6.32486,13.1802 0,3.25607 0.21932,4.35156 1.31939,6.59011 5.55463,11.30322 23.35365,19.98899 47.51547,23.18715 4.03198,0.53369 9.57291,0.76642 17.9072,0.75215 12.47436,-0.0213 18.63605,-0.58025 27.44915,-2.48979 5.7981,-1.25628 5.63664,-1.28414 5.63664,0.97276 0,1.40354 -0.2297,1.98984 -0.85427,2.18048 -2.08405,0.63613 -12.55689,2.27089 -17.45157,2.72411 -4.95466,0.45877 -23.78349,0.56458 -28.31303,0.1591 z"
       id="path43"
       transform="scale(0.26458333)" /></g></svg>
