<?xml version="1.0" encoding="UTF-8" standalone="no"?>
<!-- Created with Inkscape (http://www.inkscape.org/) -->

<svg
   width="210mm"
   height="297mm"
   viewBox="0 0 210 297"
   version="1.1"
   id="svg5"
   xmlns="http://www.w3.org/2000/svg"
   xmlns:svg="http://www.w3.org/2000/svg">
  <defs
     id="defs2" />
  <g
     id="layer1">
    <path
       id="rect792"
       style="fill:#ffffff;fill-opacity:0.813291;stroke:#000000;stroke-width:0.1;stroke-linejoin:bevel;stroke-opacity:1"
       d="M -116.87086 52.713329 C -115.2384 51.080873 -114.23115 48.823362 -114.23115 46.32162 L -114.23115 -12.731165 C -114.23115 -17.734649 -118.25945 -21.762943 -123.26293 -21.762943 L -123.27024 -21.762943 L -134.53831 -10.49487 L -134.53831 26.01446 C -134.53831 31.017945 -138.56624 35.045873 -143.56973 35.045873 L -180.07906 35.045873 L -191.34713 46.313946 L -191.34713 46.321254 C -191.34713 51.324739 -187.31884 55.353033 -182.31535 55.353033 L -123.26257 55.353033 C -120.76082 55.353033 -118.50331 54.345783 -116.87086 52.713329 z "
       transform="rotate(-135)" />
    <path
       id="rect792-5"
       style="fill:#ffffff;fill-opacity:0.813291;stroke:#000000;stroke-width:0.1;stroke-linejoin:bevel;stroke-opacity:1"
       d="m 119.9143,86.732671 c -2.30865,0 -4.61718,0.88406 -6.38618,2.65306 L 71.771498,131.14236 c -3.538,3.53799 -3.538,9.23487 0,12.77286 l 0.005,0.005 h 15.93546 l 25.815992,-25.816 c 3.538,-3.53799 9.23435,-3.53799 12.77235,1e-5 l 25.816,25.81599 h 15.93546 l 0.005,-0.005 c 3.538,-3.538 3.538,-9.23486 0,-12.77286 L 126.30014,89.385731 c -1.76901,-1.769 -4.07754,-2.65307 -6.38618,-2.65306 z" />
  </g>
</svg>
