<?xml version="1.0" encoding="UTF-8" standalone="no"?>
<!-- Created with Inkscape (http://www.inkscape.org/) -->

<svg
   width="210mm"
   height="297mm"
   viewBox="0 0 210 297"
   version="1.1"
   id="svg1"
   xml:space="preserve"
   inkscape:version="1.3.2 (091e20e, 2023-11-25, custom)"
   sodipodi:docname="hand.svg"
   xmlns:inkscape="http://www.inkscape.org/namespaces/inkscape"
   xmlns:sodipodi="http://sodipodi.sourceforge.net/DTD/sodipodi-0.dtd"
   xmlns="http://www.w3.org/2000/svg"
   xmlns:svg="http://www.w3.org/2000/svg"><sodipodi:namedview
     id="namedview1"
     pagecolor="#ffffff"
     bordercolor="#000000"
     borderopacity="0.25"
     inkscape:showpageshadow="2"
     inkscape:pageopacity="0.0"
     inkscape:pagecheckerboard="0"
     inkscape:deskcolor="#d1d1d1"
     inkscape:document-units="mm"
     inkscape:zoom="0.72426347"
     inkscape:cx="-24.162478"
     inkscape:cy="622.01122"
     inkscape:window-width="1920"
     inkscape:window-height="1009"
     inkscape:window-x="-8"
     inkscape:window-y="-8"
     inkscape:window-maximized="1"
     inkscape:current-layer="layer1" /><defs
     id="defs1"><filter
       inkscape:collect="always"
       style="color-interpolation-filters:sRGB"
       id="filter6"
       x="-0.29451521"
       y="-1.9252782"
       width="1.5890304"
       height="4.8505564"><feGaussianBlur
         inkscape:collect="always"
         stdDeviation="1.6043985"
         id="feGaussianBlur6" /></filter><filter
       inkscape:collect="always"
       style="color-interpolation-filters:sRGB"
       id="filter6-6"
       x="-0.29451521"
       y="-1.9252782"
       width="1.5890304"
       height="4.8505564"><feGaussianBlur
         inkscape:collect="always"
         stdDeviation="1.6043985"
         id="feGaussianBlur6-9" /></filter><filter
       inkscape:collect="always"
       style="color-interpolation-filters:sRGB"
       id="filter6-6-5"
       x="-0.29451521"
       y="-1.9252782"
       width="1.5890304"
       height="4.8505564"><feGaussianBlur
         inkscape:collect="always"
         stdDeviation="1.6043985"
         id="feGaussianBlur6-9-2" /></filter><filter
       inkscape:collect="always"
       style="color-interpolation-filters:sRGB"
       id="filter6-6-5-1"
       x="-0.29451521"
       y="-1.9252782"
       width="1.5890304"
       height="4.8505564"><feGaussianBlur
         inkscape:collect="always"
         stdDeviation="1.6043985"
         id="feGaussianBlur6-9-2-2" /></filter><mask
       maskUnits="userSpaceOnUse"
       id="mask6"><path
         id="path7"
         style="fill:#ffffff;fill-opacity:1;stroke:none;stroke-width:2;stroke-dasharray:none;stroke-opacity:1"
         d="m 84.667593,108.55406 c -3.632769,0.0777 -6.624675,2.4188 -9.418193,4.47819 -2.316554,1.91346 -5.138436,3.05396 -7.533013,4.85022 -0.476306,0.12372 -0.464273,0.50746 -0.40426,0.90948 0,8.7944 -2e-6,17.5888 -2e-6,26.3832 5.579152,2.00039 11.355673,3.15007 17.247579,3.30689 3.082779,0.0823 6.08448,-0.12218 9.12401,-0.53304 2.518979,-0.36977 4.3379,-3.38783 3.147939,-5.73283 -0.0622,-0.42611 -0.86622,-1.25455 -0.462,-1.42754 1.952059,-0.11903 4.085487,-1.06616 4.767497,-3.03598 0.51231,-1.38428 0.0719,-2.92285 -0.72932,-4.10289 0.8615,-0.76459 2.12032,-0.5097 3.04584,-1.16024 1.82634,-1.02654 2.72785,-3.52634 1.67291,-5.40617 -0.0594,-0.41727 -0.85681,-1.30618 -0.44844,-1.42235 4.29454,-0.0457 8.59681,0.0925 12.88625,-0.0835 2.36635,-0.35412 4.30009,-2.92046 3.49276,-5.28689 -0.64008,-2.07866 -2.93192,-3.29635 -5.03136,-3.06665 -6.27109,0 -12.54218,0 -18.813278,0 -2.140719,-1.86983 -4.025378,-4.01899 -6.276628,-5.76634 -1.570342,-1.24481 -3.262032,-2.58888 -5.295911,-2.89852 -0.324281,-0.0255 -0.647731,-0.0189 -0.97238,-0.005 z"
         inkscape:export-filename="..\..\assets\entities\textures\icons\handPoint.png"
         inkscape:export-xdpi="96"
         inkscape:export-ydpi="96" /></mask><filter
       inkscape:collect="always"
       style="color-interpolation-filters:sRGB"
       id="filter7"
       x="-0.32239967"
       y="-0.13185897"
       width="1.6447993"
       height="1.2637179"><feGaussianBlur
         inkscape:collect="always"
         stdDeviation="0.33763384"
         id="feGaussianBlur7" /></filter></defs><g
     inkscape:label="Слой 1"
     inkscape:groupmode="layer"
     id="layer1"><rect
       style="fill:#000000;fill-opacity:1;stroke:#000000;stroke-width:1.418;stroke-opacity:1"
       id="rect2"
       width="109.78419"
       height="95.189362"
       x="-118.4753"
       y="70.582291" /><path
       id="path2"
       style="fill:#ffffff;fill-opacity:1;stroke:#000000;stroke-width:1;stroke-dasharray:none;stroke-opacity:0.28060263"
       d="m 84.667593,108.55406 c -3.63277,0.0777 -6.624675,2.4188 -9.418194,4.47819 -2.316553,1.91346 -5.138436,3.05396 -7.533013,4.85022 -0.476304,0.12372 -0.464271,0.50746 -0.40426,0.90948 0,8.7944 -1e-6,17.5888 -1e-6,26.3832 5.579152,2.00039 11.355674,3.15007 17.247578,3.30689 3.08278,0.0823 6.08448,-0.12218 9.12401,-0.53304 2.51898,-0.36977 4.3379,-3.38783 3.14794,-5.73283 -0.0622,-0.42611 -0.86622,-1.25455 -0.462,-1.42754 1.95206,-0.11903 4.085487,-1.06616 4.767497,-3.03598 0.51231,-1.38428 0.0719,-2.92285 -0.72932,-4.10289 0.8615,-0.76459 2.12032,-0.5097 3.04584,-1.16024 1.82634,-1.02654 2.72785,-3.52634 1.67291,-5.40617 -0.0594,-0.41727 -0.85681,-1.30618 -0.44844,-1.42235 4.29454,-0.0457 8.59681,0.0925 12.88625,-0.0835 2.36635,-0.35412 4.30009,-2.92046 3.49276,-5.28689 -0.64008,-2.07866 -2.93192,-3.29635 -5.03136,-3.06665 -6.27109,0 -12.54218,0 -18.813277,0 -2.14072,-1.86983 -4.02538,-4.01899 -6.27663,-5.76634 -1.57034,-1.24481 -3.26203,-2.58888 -5.29591,-2.89852 -0.32428,-0.0255 -0.64773,-0.0189 -0.97238,-0.005 z"
       inkscape:export-filename="..\..\assets\entities\textures\icons\handPoint.png"
       inkscape:export-xdpi="96"
       inkscape:export-ydpi="96" /><path
       id="rect3"
       style="fill:#ffffff;fill-opacity:1;stroke:#000000;stroke-width:1;stroke-dasharray:none;stroke-opacity:0.28060263"
       d="m 58.607047,116.01109 c -1.665107,-0.12913 -3.01964,1.56042 -2.746108,3.15859 0.01072,8.90115 -0.03174,17.80452 0.0323,26.70426 0.177687,1.57361 1.89543,2.50875 3.369184,2.22726 1.513347,-0.12055 2.600649,-1.6849 2.36614,-3.14949 -0.01072,-8.89834 0.03126,-17.79917 -0.03115,-26.69595 -0.158916,-1.40176 -1.619639,-2.42519 -2.990363,-2.24467 z"
       inkscape:export-filename="..\..\assets\entities\textures\icons\handPoint.png"
       inkscape:export-xdpi="96"
       inkscape:export-ydpi="96" /><g
       id="g6"
       mask="url(#mask6)"
       style="opacity:0.4929078;filter:url(#filter7);stroke:none;stroke-opacity:1"><g
         id="path3"
         style="opacity:0.787234;mix-blend-mode:normal;filter:url(#filter6);stroke:none;stroke-opacity:1"
         transform="matrix(2.2226924,0,0,0.65167385,-99.554964,41.63616)"><path
           style="color:#000000;fill:#d0d0d0;stroke-linecap:round;-inkscape-stroke:none;stroke:none;stroke-opacity:1"
           d="m 82.484556,115.99043 h 11.07482"
           id="path5" /><path
           style="color:#000000;fill:#1f1f1f;stroke-linecap:round;-inkscape-stroke:none;stroke:none;stroke-opacity:1"
           d="m 82.484375,114.99023 a 1,1 0 0 0 -1,1 1,1 0 0 0 1,1 h 11.074219 a 1,1 0 0 0 1,-1 1,1 0 0 0 -1,-1 z"
           id="path6" /></g><g
         id="path3-7"
         style="opacity:0.787234;mix-blend-mode:normal;filter:url(#filter6-6);stroke:none;stroke-opacity:1"
         transform="matrix(0.44670729,0,0,0.65167385,66.912305,50.539977)"><path
           style="color:#000000;fill:#d0d0d0;stroke-linecap:round;-inkscape-stroke:none;stroke:none;stroke-opacity:1"
           d="m 82.484556,115.99043 h 11.07482"
           id="path5-4" /><path
           style="color:#000000;fill:#1f1f1f;stroke-linecap:round;-inkscape-stroke:none;stroke:none;stroke-opacity:1"
           d="m 82.484375,114.99023 a 1,1 0 0 0 -1,1 1,1 0 0 0 1,1 h 11.074219 a 1,1 0 0 0 1,-1 1,1 0 0 0 -1,-1 z"
           id="path6-2" /></g><g
         id="path3-7-1"
         style="opacity:0.787234;mix-blend-mode:normal;filter:url(#filter6-6-5);stroke:none;stroke-opacity:1"
         transform="matrix(0.44670729,0,0,0.65167385,63.304876,57.835485)"><path
           style="color:#000000;fill:#d0d0d0;stroke-linecap:round;-inkscape-stroke:none;stroke:none;stroke-opacity:1"
           d="m 82.484556,115.99043 h 11.07482"
           id="path5-4-0" /><path
           style="color:#000000;fill:#1f1f1f;stroke-linecap:round;-inkscape-stroke:none;stroke:none;stroke-opacity:1"
           d="m 82.484375,114.99023 a 1,1 0 0 0 -1,1 1,1 0 0 0 1,1 h 11.074219 a 1,1 0 0 0 1,-1 1,1 0 0 0 -1,-1 z"
           id="path6-2-9" /></g><g
         id="path3-7-1-3"
         style="opacity:0.787234;mix-blend-mode:normal;filter:url(#filter6-6-5-1);stroke:none;stroke-opacity:1"
         transform="matrix(0.44670729,0,0,0.65167385,58.706231,65.508409)"><path
           style="color:#000000;fill:#d0d0d0;stroke-linecap:round;-inkscape-stroke:none;stroke:none;stroke-opacity:1"
           d="m 82.484556,115.99043 h 11.07482"
           id="path5-4-0-7" /><path
           style="color:#000000;fill:#1f1f1f;stroke-linecap:round;-inkscape-stroke:none;stroke:none;stroke-opacity:1"
           d="m 82.484375,114.99023 a 1,1 0 0 0 -1,1 1,1 0 0 0 1,1 h 11.074219 a 1,1 0 0 0 1,-1 1,1 0 0 0 -1,-1 z"
           id="path6-2-9-3" /></g></g></g></svg>
